<svg width="32" height="32" viewBox="0 0 32 32" fill="none" xmlns="http://www.w3.org/2000/svg">
  <defs>
    <linearGradient id="bg" x1="5" y1="4" x2="27" y2="28" gradientUnits="userSpaceOnUse">
      <stop offset="0" stop-color="#132D7A"/>
      <stop offset="1" stop-color="#2E8BFF"/>
    </linearGradient>
    <linearGradient id="eye" x1="0" y1="0" x2="0" y2="1">
      <stop offset="0" stop-color="#051435"/>
      <stop offset="1" stop-color="#1B60FF"/>
    </linearGradient>
  </defs>

  <!-- Background -->
  <rect width="32" height="32" rx="7" fill="url(#bg)"/>

  <!-- Mini cloud -->
  <path d="M21 8.5c-2.1 0-4 0.9-5.3 2.3-1.4-1.6-3.6-2.6-6-2.6-4.6 0-8.3 3.6-8.3 8 0 0.7 0.1 1.5 0.3 2.2C0.9 19.6 0 21.2 0 23.1 0 27.4 3.5 31 8 31h12.7c6.6 0 12-5.3 12-11.8 0-4.7-2.9-8.7-7-10.5-0.9-2-3.1-3.2-4.7-3.2Z" transform="translate(4.5 1.5)" fill="#E9F4FF"/>

  <!-- Eyes -->
  <ellipse cx="14.5" cy="17" rx="3.2" ry="4.2" fill="url(#eye)"/>
  <ellipse cx="20.8" cy="17" rx="3.2" ry="4.2" fill="url(#eye)"/>
  <ellipse cx="14.7" cy="17.6" rx="1.9" ry="2.6" fill="#020923"/>
  <ellipse cx="21" cy="17.6" rx="1.9" ry="2.6" fill="#020923"/>

  <!-- Star highlights -->
  <path d="M13.9 15.5l0.7 1.6 1.6 0.1-1.2 1.1 0.3 1.7-1.4-0.8-1.5 0.8 0.4-1.7-1.2-1.1 1.6-0.1 0.7-1.6Z" fill="#FFFFFF"/>
  <path d="M20.3 15.5l0.7 1.6 1.6 0.1-1.2 1.1 0.3 1.7-1.4-0.8-1.4 0.8 0.3-1.7-1.2-1.1 1.6-0.1 0.7-1.6Z" fill="#FFFFFF"/>
</svg>
