<svg width="32" height="32" viewBox="0 0 32 32" fill="none" xmlns="http://www.w3.org/2000/svg">
  <defs>
    <linearGradient id="bg" x1="0%" y1="0%" x2="100%" y2="100%">
      <stop offset="0%" style="stop-color:#1E40AF"/>
      <stop offset="100%" style="stop-color:#60A5FA"/>
    </linearGradient>
  </defs>
  
  <!-- Background -->
  <rect width="32" height="32" rx="6" fill="url(#bg)"/>
  
  <!-- Image frame -->
  <rect x="6" y="8" width="20" height="16" rx="2" fill="#FFFFFF" stroke="#E5E7EB"/>
  
  <!-- AI neural network pattern -->
  <g opacity="0.8">
    <circle cx="10" cy="12" r="1" fill="#3B82F6"/>
    <circle cx="16" cy="12" r="1" fill="#3B82F6"/>
    <circle cx="22" cy="12" r="1" fill="#3B82F6"/>
    <circle cx="13" cy="18" r="1" fill="#3B82F6"/>
    <circle cx="19" cy="18" r="1" fill="#3B82F6"/>
    <line x1="10" y1="12" x2="16" y2="12" stroke="#3B82F6" stroke-width="0.5"/>
    <line x1="16" y1="12" x2="22" y2="12" stroke="#3B82F6" stroke-width="0.5"/>
    <line x1="13" y1="12" x2="13" y2="18" stroke="#3B82F6" stroke-width="0.5"/>
    <line x1="19" y1="12" x2="19" y2="18" stroke="#3B82F6" stroke-width="0.5"/>
    <line x1="13" y1="18" x2="19" y2="18" stroke="#3B82F6" stroke-width="0.5"/>
  </g>
  
  <!-- Scanning line -->
  <rect x="6" y="15" width="20" height="1" fill="#10B981"/>
  
  <!-- Detection corners -->
  <g stroke="#10B981" stroke-width="1" fill="none">
    <path d="M4 6 L4 4 L6 4"/>
    <path d="M26 4 L28 4 L28 6"/>
    <path d="M4 26 L4 28 L6 28"/>
    <path d="M26 28 L28 28 L28 26"/>
  </g>
  
  <!-- Status indicator -->
  <circle cx="26" cy="6" r="2" fill="#10B981"/>
  <circle cx="26" cy="6" r="1" fill="#FFFFFF"/>
</svg>