<svg width="128" height="128" viewBox="0 0 128 128" fill="none" xmlns="http://www.w3.org/2000/svg">
  <defs>
    <linearGradient id="bgGradient" x1="16" y1="12" x2="108" y2="116" gradientUnits="userSpaceOnUse">
      <stop offset="0" stop-color="#122B74"/>
      <stop offset="0.45" stop-color="#1843A3"/>
      <stop offset="1" stop-color="#2F8FFF"/>
    </linearGradient>
    <radialGradient id="cloudGradient" cx="0" cy="0" r="1" gradientUnits="userSpaceOnUse" gradientTransform="matrix(0 68 -86.5 0 64 60)">
      <stop offset="0" stop-color="#FFFFFF"/>
      <stop offset="0.5" stop-color="#EFF6FF"/>
      <stop offset="1" stop-color="#CDE7FF"/>
    </radialGradient>
    <linearGradient id="eyeGradient" x1="0" y1="0" x2="0" y2="1" gradientUnits="objectBoundingBox">
      <stop offset="0" stop-color="#0A1F44"/>
      <stop offset="0.6" stop-color="#0F3D8D"/>
      <stop offset="1" stop-color="#1E66FF"/>
    </linearGradient>
    <filter id="cloudShadow" x="-10%" y="-10%" width="120%" height="130%" color-interpolation-filters="sRGB">
      <feDropShadow dx="0" dy="8" stdDeviation="10" flood-color="#0A225D" flood-opacity="0.35"/>
    </filter>
    <filter id="sparkleBlur" x="-50%" y="-50%" width="200%" height="200%">
      <feGaussianBlur in="SourceGraphic" stdDeviation="0.4"/>
    </filter>
  </defs>

  <!-- Rounded background -->
  <rect x="6" y="6" width="116" height="116" rx="28" fill="url(#bgGradient)"/>

  <!-- Ambient stars -->
  <g fill="#FFFFFF" opacity="0.55">
    <circle cx="36" cy="22" r="1.6"/>
    <circle cx="90" cy="26" r="1.2"/>
    <circle cx="104" cy="48" r="1.6"/>
    <circle cx="24" cy="52" r="1"/>
    <circle cx="72" cy="18" r="1.3"/>
    <circle cx="48" cy="104" r="1.1"/>
    <circle cx="92" cy="96" r="1.4"/>
    <circle cx="28" cy="88" r="1.2"/>
  </g>

  <!-- Main cloud -->
  <g filter="url(#cloudShadow)">
    <path d="M73.2 32.8c-6.8 0-13 3-17.2 7.6-4.4-5-10.9-8.1-18.2-8.1-14.1 0-25.4 11.2-25.4 24.9 0 2.3 0.3 4.5 0.8 6.6C6 69.6 2 76 2 83.9 2 98.9 14 111 29.2 111h50.3c20.3 0 36.8-16.4 36.8-36.6 0-14.5-8.7-27.1-21.1-32.9-2.7-5.6-9.3-8.7-17.1-8.7Z" transform="translate(12 8)" fill="url(#cloudGradient)"/>
  </g>

  <!-- Cloud highlight -->
  <path d="M53 43.5c-6.5-7.1-13.8-9.2-20-8.6-9.9 0.9-17.7 8.5-19.2 17.9-0.4 2.5-0.4 5 0 7.5 3.4-8.8 11.8-15 21.6-15 6 0 12.2 2.6 17.6 7.4 2.1 1.9 5.3 2 7.5 0.1 4.7-3.9 10.2-6.2 15.7-6.6-9.5-4.9-17.5-9.7-23.2-2.7Z" fill="white" opacity="0.45"/>

  <!-- Eyes -->
  <g transform="translate(0 -2)">
    <!-- Left eye -->
    <ellipse cx="55" cy="68" rx="11.2" ry="15" fill="url(#eyeGradient)"/>
    <!-- Right eye -->
    <ellipse cx="90" cy="68" rx="11.2" ry="15" fill="url(#eyeGradient)"/>

    <!-- Eye gloss -->
    <ellipse cx="53.5" cy="65" rx="7.5" ry="10.5" fill="white" opacity="0.12"/>
    <ellipse cx="88.5" cy="65" rx="7.5" ry="10.5" fill="white" opacity="0.12"/>

    <!-- Pupils -->
    <ellipse cx="56" cy="70" rx="6.1" ry="8.8" fill="#020923"/>
    <ellipse cx="90.8" cy="70" rx="6.1" ry="8.8" fill="#020923"/>

    <!-- Sparkle stars -->
    <g fill="#FFFFFF">
      <path d="M52.6 63.9l1.4 3 3 .2-2.4 2.1.7 3.2-2.7-1.6-2.7 1.6.7-3.2-2.4-2.1 3-.2 1.4-3Z"/>
      <path d="M87.6 63.9l1.4 3 3 .2-2.4 2.1.7 3.2-2.7-1.6-2.7 1.6.7-3.2-2.4-2.1 3-.2 1.4-3Z"/>
    </g>

    <!-- Smaller sparkles -->
    <g fill="#8AB7FF">
      <circle cx="60.5" cy="76.8" r="1.3" filter="url(#sparkleBlur)"/>
      <circle cx="95.5" cy="76.4" r="1.3" filter="url(#sparkleBlur)"/>
    </g>
  </g>

  <!-- Bottom glow -->
  <ellipse cx="64" cy="104" rx="32" ry="8" fill="#1F4DB6" opacity="0.2"/>
</svg>
