<svg width="64" height="64" viewBox="0 0 64 64" fill="none" xmlns="http://www.w3.org/2000/svg" role="img" aria-labelledby="nanoBananaTitle nanoBananaDesc">
  <title id="nanoBananaTitle">Nano Banana Icon</title>
  <desc id="nanoBananaDesc">Stylized banana expressing the Nano Banana brand</desc>
  <defs>
    <linearGradient id="bananaBody" x1="8" y1="12" x2="54" y2="48" gradientUnits="userSpaceOnUse">
      <stop offset="0" stop-color="#FFE066" />
      <stop offset="0.55" stop-color="#FFC933" />
      <stop offset="1" stop-color="#FFB400" />
    </linearGradient>
    <linearGradient id="bananaEdge" x1="18" y1="8" x2="46" y2="54" gradientUnits="userSpaceOnUse">
      <stop offset="0" stop-color="#F4A300" />
      <stop offset="1" stop-color="#CC7A00" />
    </linearGradient>
    <linearGradient id="bananaHighlight" x1="18" y1="18" x2="42" y2="38" gradientUnits="userSpaceOnUse">
      <stop offset="0" stop-color="#FFF7B3" />
      <stop offset="1" stop-color="#FFE066" stop-opacity="0" />
    </linearGradient>
  </defs>
  <path d="M56.38 10.73c0.74 2.45 0.6 4.99-0.02 7.28-1.94 7.13-6.69 14.01-12.46 18.86-5.77 4.86-12.81 7.71-19.66 7.71-6.13 0-11.82-2.19-15.86-6.24-0.81-0.8-1.07-1.99-0.65-3.06l1.84-4.66c0.27-0.68 0.8-1.21 1.49-1.48 2.92-1.15 6.21-0.45 8.64 1.71 2.94 2.6 7.25 3.44 11.41 2.18 5.33-1.62 9.83-6.25 11.74-12.04 1.24-3.88 1.03-7.97-0.58-11.29-0.38-0.77-0.28-1.69 0.25-2.36l3.15-4.03c0.5-0.63 1.29-0.93 2.07-0.8 4.66 0.78 8.06 3.35 9.59 7.91Z" fill="url(#bananaBody)" />
  <path d="M19.77 43.04c6.85 0 13.89-2.85 19.66-7.71 5.77-4.85 10.52-11.73 12.46-18.86 0.19-0.68 0.33-1.37 0.42-2.05 1.08 5.91-2.23 13.42-7.18 18.73-7.45 7.83-18.75 12.17-27.85 9.44-2.21-0.65-4.1-1.69-5.62-3.07 2.75 2.14 6.13 3.52 9.99 3.52Z" fill="url(#bananaEdge)" opacity="0.85" />
  <path d="M42.71 17.74c1.17 4.93-1.51 10.21-6.04 12.21-5.06 2.23-11.13 1.03-14.73-2.47-2.35-2.33-5.82-2.62-8.35-1.37l0.48-1.21c0.27-0.68 0.8-1.21 1.49-1.48 2.92-1.15 6.21-0.45 8.64 1.71 2.94 2.6 7.25 3.44 11.41 2.18 3.23-0.98 6.07-3.29 7.1-6.55Z" fill="url(#bananaHighlight)" />
  <path d="M51.09 5.51c1.4 0.27 2.46 1.35 2.83 2.63 0.15 0.55-0.57 0.9-0.91 0.45-0.56-0.74-1.43-1.26-2.43-1.25-0.71 0.01-1.54 0.21-2.18 0.65-0.45 0.3-1.02-0.17-0.81-0.67 0.52-1.22 1.85-2.19 3.5-1.81Z" fill="#6B4C1D" />
  <path d="M12.83 39.7c0.25-0.64-0.22-1.35-0.91-1.35-0.53 0-1.05 0.35-1.27 0.92l-0.88 2.23c-0.35 0.9 0.03 1.92 0.87 2.41 1.05 0.63 2.3 1.1 3.7 1.31-1.22-1.08-1.86-2.44-1.52-3.53l1.01-2.61Z" fill="#F4A300" opacity="0.7" />
</svg>
