<svg width="128" height="128" viewBox="0 0 128 128" fill="none" xmlns="http://www.w3.org/2000/svg">
  <defs>
    <linearGradient id="bgGradient" x1="0%" y1="0%" x2="100%" y2="100%">
      <stop offset="0%" style="stop-color:#6366F1;stop-opacity:1" />
      <stop offset="100%" style="stop-color:#3730A3;stop-opacity:1" />
    </linearGradient>
    <linearGradient id="rocketGradient" x1="0%" y1="0%" x2="100%" y2="100%">
      <stop offset="0%" style="stop-color:#FFFFFF;stop-opacity:1" />
      <stop offset="100%" style="stop-color:#E2E8F0;stop-opacity:1" />
    </linearGradient>
  </defs>
  
  <!-- Background -->
  <rect x="8" y="8" width="112" height="112" rx="28" fill="url(#bgGradient)"/>
  
  <!-- Rocket body (representing "ship fast") -->
  <g transform="translate(64,64)">
    <!-- Main rocket body -->
    <ellipse cx="0" cy="-8" rx="12" ry="24" fill="url(#rocketGradient)" stroke="#1E40AF" stroke-width="1"/>
    
    <!-- Rocket tip -->
    <path d="M-8 -32 L8 -32 L0 -40 Z" fill="#FFFFFF"/>
    
    <!-- Rocket fins -->
    <path d="M-12 8 L-20 20 L-8 16 Z" fill="#F1F5F9"/>
    <path d="M12 8 L20 20 L8 16 Z" fill="#F1F5F9"/>
    
    <!-- Window -->
    <circle cx="0" cy="-16" r="4" fill="#3B82F6"/>
    
    <!-- AI brain pattern inside -->
    <g opacity="0.8">
      <circle cx="-2" cy="-16" r="1" fill="#FFFFFF"/>
      <circle cx="2" cy="-16" r="1" fill="#FFFFFF"/>
      <path d="M-3 -14 Q0 -12 3 -14" stroke="#FFFFFF" stroke-width="0.8" fill="none"/>
    </g>
    
    <!-- Flame/exhaust -->
    <ellipse cx="0" cy="20" rx="6" ry="8" fill="#F59E0B"/>
    <ellipse cx="0" cy="24" rx="4" ry="6" fill="#EF4444"/>
    <ellipse cx="0" cy="26" rx="2" ry="4" fill="#DC2626"/>
    
    <!-- Speed/motion lines -->
    <g opacity="0.6">
      <line x1="28" y1="-20" x2="36" y2="-20" stroke="#FFFFFF" stroke-width="2"/>
      <line x1="28" y1="-12" x2="34" y2="-12" stroke="#FFFFFF" stroke-width="1.5"/>
      <line x1="28" y1="-4" x2="36" y2="-4" stroke="#FFFFFF" stroke-width="2"/>
      <line x1="28" y1="4" x2="34" y2="4" stroke="#FFFFFF" stroke-width="1.5"/>
    </g>
  </g>
</svg>